<svg xmlns="http://www.w3.org/2000/svg" viewBox="0 0 6000 6000">
  <g transform="translate(0,6000) scale(1,-1)" fill="#3b82f6" stroke="#3b82f6" stroke-width="60" stroke-linejoin="round">
    <path d="M2920 4364 c-322 -27 -605 -155 -827 -375 -206 -204 -332 -457 -379 -764 -21 -132 -13 -384 14 -505 61 -263 178 -477 362 -660 85 -86 249 -210 275 -210 7 0 124 249 172 369 2 3 -18 19 -44 35 -62 40 -172 152 -224 227 -60 88 -115 213 -141 315 -31 124 -31 321 0 447 46 187 126 331 253 453 130 126 253 194 426 235 74 18 109 20 223 16 80 -3 162 -12 200 -22 164 -43 366 -176 468 -310 72 -95 137 -226 170 -343 24 -87 27 -113 26 -257 0 -188 -17 -263 -89 -412 -99 -204 -270 -364 -476 -446 -120 -48 -177 -59 -318 -61 l-135 -2 -52 -195 c-29 -107 -51 -195 -50 -196 1 -1 40 -7 86 -12 228 -29 476 13 695 118 148 70 238 133 356 251 154 152 254 314 324 523 96 286 93 593 -6 891 -132 396 -439 702 -834 829 -138 45 -346 71 -475 61z"/>
    <path d="M2876 3391 c-213 -70 -333 -298 -268 -508 116 -370 611 -394 774 -36 19 40 23 66 23 153 0 97 -2 110 -32 172 -41 88 -113 160 -200 201 -88 41 -206 48 -297 18z"/>
    <path d="M2753 5169 c-619 -72 -1178 -416 -1530 -942 -141 -211 -289 -556 -337 -788 -46 -225 -46 -218 -46 -1875 0 -1338 2 -1564 14 -1564 12 0 14 226 15 1562 1 1357 3 1579 17 1688 9 69 17 134 18 145 2 11 8 36 14 55 6 19 14 49 17 65 10 59 81 261 126 360 12 28 23 52 24 55 0 3 14 30 30 60 16 30 30 57 30 60 6 22 30 58 36 54 5 -3 6 3 2 12 -5 13 -3 15 7 9 7 -5 11 -4 8 1 -3 5 4 23 16 40 11 17 38 56 58 86 20 31 44 63 53 72 9 9 14 16 12 16 -6 0 36 50 99 116 28 30 48 54 45 54 -3 0 2 7 12 15 27 20 125 105 164 142 19 18 61 51 94 74 32 23 59 46 59 52 0 6 3 7 6 4 8 -8 64 24 64 36 0 4 5 5 10 2 6 -3 10 -2 10 3 0 5 18 17 40 27 22 10 40 22 40 27 0 5 4 7 9 4 5 -3 19 3 32 13 20 15 134 76 134 71 0 -1 13 3 28 9 16 6 34 11 42 11 8 0 17 5 20 10 3 6 26 15 51 21 24 6 44 15 44 19 0 4 13 6 30 5 16 -1 27 2 24 7 -3 4 7 8 22 9 15 0 74 10 132 22 112 23 134 26 250 36 97 8 305 8 350 -1 19 -4 46 -9 60 -10 14 -2 48 -6 75 -9 40 -4 174 -36 305 -71 69 -19 129 -43 123 -49 -5 -4 -3 -7 2 -5 11 2 40 -7 69 -22 14 -8 16 -7 10 2 -4 7 6 4 22 -7 16 -12 50 -29 76 -40 25 -10 44 -22 42 -26 -3 -5 4 -8 15 -8 11 0 23 -5 26 -11 7 -11 55 -33 67 -31 4 1 5 -8 3 -19 -4 -17 -2 -19 10 -9 11 10 15 10 15 1 0 -7 4 -10 8 -7 5 3 21 -6 37 -20 15 -13 33 -24 39 -24 6 0 17 -9 24 -20 7 -11 19 -20 28 -20 9 0 12 -5 8 -12 -4 -6 -3 -8 3 -5 5 3 25 -9 43 -28 19 -19 39 -35 46 -35 16 0 66 -59 59 -71 -4 -5 0 -6 7 -4 8 3 37 -17 65 -45 28 -27 50 -50 48 -50 -2 0 31 -36 101 -110 13 -14 24 -29 24 -33 0 -8 47 -71 82 -111 10 -10 15 -22 13 -26 -3 -5 2 -11 11 -14 8 -3 12 -11 8 -17 -4 -7 -3 -9 2 -6 5 3 25 -25 44 -61 19 -37 43 -78 53 -91 9 -13 17 -32 17 -42 0 -11 4 -19 8 -19 8 0 42 -68 42 -83 0 -4 8 -26 18 -50 50 -113 89 -230 97 -287 2 -14 13 -61 24 -105 25 -102 44 -274 42 -395 -1 -138 -11 -288 -22 -345 -5 -27 -11 -63 -13 -80 -7 -49 -16 -88 -26 -115 -5 -14 -19 -61 -31 -105 -11 -43 -30 -95 -40 -114 -11 -20 -19 -42 -19 -51 0 -21 -161 -340 -171 -340 -5 0 -9 -5 -9 -10 0 -11 -143 -207 -164 -225 -7 -5 -29 -32 -50 -60 -21 -27 -40 -49 -42 -47 -2 1 -4 -1 -3 -4 0 -3 -17 -19 -38 -36 -45 -35 -54 -44 -33 -33 21 11 3 -5 -43 -39 -20 -15 -42 -24 -47 -21 -5 3 -7 0 -4 -8 6 -16 -149 -140 -161 -129 -5 4 -5 2 -2 -4 4 -7 1 -15 -6 -18 -6 -3 -25 -15 -42 -26 -16 -11 -38 -23 -47 -26 -10 -4 -18 -11 -18 -16 0 -5 -4 -7 -9 -3 -5 3 -12 1 -16 -5 -3 -5 -30 -21 -58 -36 -29 -14 -68 -33 -87 -44 -19 -10 -38 -16 -41 -14 -4 2 -9 -3 -13 -11 -3 -8 -12 -15 -20 -15 -9 0 -30 -6 -48 -14 -18 -8 -49 -21 -70 -30 -20 -9 -44 -16 -53 -16 -9 0 -26 -5 -37 -11 -29 -16 -145 -48 -193 -54 -22 -3 -49 -9 -60 -12 -11 -4 -28 -6 -37 -4 -10 1 -18 -1 -18 -6 0 -12 -120 -18 -345 -18 -223 1 -315 6 -315 18 0 5 -8 7 -17 6 -10 -2 -34 1 -53 6 -19 5 -39 8 -44 7 -4 -2 -14 2 -22 9 -7 6 -17 8 -22 5 -4 -3 -27 2 -51 10 -23 8 -50 16 -59 18 -19 3 -31 7 -82 26 -19 6 -43 12 -53 12 -9 -1 -15 4 -11 9 3 5 2 9 -3 7 -4 -1 -26 6 -48 16 -22 10 -45 19 -51 20 -18 3 -209 101 -212 108 -2 5 -10 8 -18 8 -9 0 -12 5 -8 12 5 8 2 9 -9 5 -10 -3 -17 -3 -17 2 0 4 -16 16 -35 27 -19 10 -35 25 -36 34 0 10 -2 11 -6 2 -3 -8 -13 -4 -33 14 -15 15 -31 27 -36 27 -12 0 -33 30 -28 39 3 4 -1 5 -9 3 -7 -3 -25 5 -40 19 -14 13 -51 45 -82 70 -31 25 -55 46 -53 46 2 0 -28 33 -67 74 -38 41 -79 87 -90 101 -11 15 -32 41 -47 58 -16 17 -28 35 -28 40 0 4 -4 5 -10 2 -5 -3 -10 -1 -10 6 0 6 -9 0 -20 -14 -20 -25 -20 -38 -20 -886 1 -749 2 -861 15 -861 13 0 15 114 17 870 l3 870 55 -72 c79 -105 269 -292 380 -375 295 -220 590 -346 970 -414 114 -21 561 -19 665 3 244 51 385 97 571 188 295 142 519 314 721 555 448 532 615 1230 454 1891 -158 642 -580 1169 -1166 1454 -220 107 -443 171 -690 200 -105 12 -378 11 -482 -1z"/>
    <path d="M2878 4795 c-4 -4 -118 -14 -166 -14 -18 -1 -31 -4 -29 -8 3 -5 -7 -8 -21 -9 -44 -1 -117 -20 -192 -49 -19 -7 -56 -19 -82 -26 -27 -8 -48 -18 -48 -23 0 -5 -3 -7 -6 -3 -3 3 -35 -10 -70 -29 -36 -19 -69 -32 -74 -29 -6 3 -10 -1 -10 -9 0 -9 -3 -15 -7 -14 -10 3 -140 -69 -148 -82 -4 -6 -12 -7 -18 -4 -7 4 -9 4 -5 -1 7 -7 -28 -39 -42 -40 -9 0 -64 -50 -159 -142 -52 -51 -99 -89 -104 -86 -6 3 -7 1 -3 -5 3 -5 -6 -25 -21 -44 -43 -52 -50 -58 -58 -50 -5 4 -5 2 -2 -4 3 -6 -4 -22 -16 -35 -25 -26 -43 -55 -53 -81 -3 -10 -11 -18 -17 -18 -6 0 -7 -3 -4 -7 4 -3 -4 -20 -17 -37 -24 -32 -125 -232 -130 -257 -1 -8 -10 -31 -19 -53 -9 -21 -17 -47 -17 -57 0 -10 -4 -20 -9 -23 -7 -5 -17 -35 -26 -81 -1 -5 -5 -29 -10 -53 -4 -23 -12 -45 -16 -48 -5 -3 -7 -9 -5 -13 3 -3 -1 -38 -8 -76 -16 -86 -15 -69 -20 -250 -2 -82 0 -175 5 -205 6 -30 14 -80 19 -110 10 -67 17 -97 26 -111 3 -6 8 -28 11 -48 4 -38 39 -137 56 -158 5 -7 7 -13 4 -13 -6 0 29 -84 69 -163 13 -27 24 -56 24 -64 0 -9 3 -13 6 -10 7 6 12 -2 63 -95 13 -23 31 -51 40 -60 9 -10 25 -29 36 -44 11 -14 28 -35 38 -45 9 -11 15 -19 12 -19 -8 0 48 -61 150 -163 55 -54 99 -102 98 -107 -1 -4 9 -6 23 -4 13 1 22 -1 19 -5 -6 -10 79 -71 99 -71 8 0 20 -8 25 -19 6 -10 22 -22 36 -25 14 -4 25 -11 25 -16 0 -6 9 -10 21 -10 11 0 17 -4 14 -10 -4 -6 1 -7 11 -3 13 5 15 3 9 -7 -5 -8 -4 -11 3 -6 6 4 20 -1 31 -11 11 -9 30 -18 42 -20 11 -2 33 -12 48 -22 14 -10 32 -16 40 -13 9 3 11 0 6 -8 -5 -9 -4 -11 4 -6 6 4 23 0 37 -9 14 -9 28 -14 32 -11 3 3 16 -1 29 -9 13 -9 29 -13 35 -9 6 4 8 3 5 -3 -8 -12 69 -27 85 -17 7 4 8 2 4 -4 -4 -7 -4 -12 1 -13 13 -1 88 -13 168 -26 56 -10 75 -11 210 -16 111 -5 167 1 395 37 9 1 21 5 28 10 6 4 16 4 22 1 5 -3 20 1 33 10 13 8 26 12 30 9 3 -3 12 -2 19 2 7 5 20 9 28 11 9 1 34 10 55 19 22 10 47 19 56 20 19 4 57 20 79 33 8 5 47 24 85 42 39 18 72 35 75 39 3 3 20 12 38 19 18 8 63 38 100 67 37 30 72 52 79 50 7 -3 10 3 8 15 -2 11 0 17 4 14 5 -3 57 42 117 100 59 57 111 102 116 99 5 -3 7 -2 6 3 -4 14 13 53 23 53 5 0 8 3 7 8 -2 4 14 27 35 52 20 25 37 49 36 54 0 5 3 12 8 15 22 15 140 217 149 254 1 4 3 9 4 12 1 3 3 8 4 13 1 4 4 12 8 18 12 18 70 178 73 201 2 12 6 27 11 34 4 7 8 22 10 33 2 12 6 32 10 46 30 114 47 411 31 554 -13 123 -29 210 -43 245 -8 19 -12 36 -10 38 3 3 -4 25 -14 49 -11 24 -18 44 -16 44 3 0 -5 24 -16 53 -10 28 -20 57 -21 62 -2 6 -18 42 -37 80 -18 39 -35 75 -36 80 -5 30 -146 243 -191 291 -13 12 -23 26 -23 29 0 13 -138 154 -196 202 -22 17 -48 40 -59 50 -38 35 -128 103 -136 103 -4 0 -28 14 -52 30 -25 17 -50 30 -57 30 -6 0 -8 6 -4 13 4 6 3 9 -1 4 -5 -4 -19 0 -32 8 -13 9 -23 12 -23 8 0 -5 -4 -2 -9 5 -4 7 -14 15 -22 16 -17 3 -107 42 -132 56 -10 6 -23 8 -29 4 -6 -4 -8 -3 -4 4 4 6 -1 10 -13 9 -10 0 -36 6 -57 15 -22 9 -65 21 -97 28 -34 7 -55 16 -51 22 4 6 -2 5 -15 -1 -12 -7 -21 -8 -21 -2 0 5 -8 10 -17 10 -10 0 -43 3 -73 6 -59 7 -356 15 -362 10z"/>
  </g>
</svg>
