<svg xmlns="http://www.w3.org/2000/svg" viewBox="0 0 32 32" fill="none">
  <rect width="32" height="32" rx="7" fill="url(#bg)"/>
  <g transform="translate(16,16.5) scale(0.0044,-0.0044) translate(-3000,-3000)" fill="white" stroke="none">
    <path d="M2735 5989 c-475 -44 -957 -208 -1340 -454 -794 -511 -1292 -1326 -1380 -2254 -13 -140 -15 -395 -15 -1723 l0 -1558 220 0 219 0 3 1643 3 1642 23 124 c89 489 249 858 531 1226 80 105 271 297 385 389 340 274 767 460 1216 531 162 26 540 32 710 10 323 -40 655 -141 910 -277 624 -333 1076 -915 1254 -1613 61 -238 78 -357 83 -591 8 -305 -20 -532 -98 -804 -168 -584 -561 -1102 -1094 -1440 -307 -195 -719 -339 -1087 -379 -125 -14 -427 -14 -543 0 -289 34 -542 106 -828 237 -44 20 -82 32 -84 27 -2 -6 -48 -91 -102 -190 -55 -99 -97 -184 -94 -189 7 -10 166 -85 273 -128 247 -100 513 -168 780 -200 138 -16 536 -16 670 0 460 57 921 226 1300 477 750 495 1217 1255 1331 2165 18 137 18 543 1 680 -74 596 -309 1144 -681 1585 -580 690 -1428 1081 -2326 1074 -82 -1 -190 -5 -240 -10z"/>
    <path d="M2745 5169 c-125 -17 -308 -58 -405 -90 -556 -185 -1008 -582 -1266 -1114 -79 -161 -152 -367 -185 -517 -49 -224 -49 -218 -49 -1885 l0 -1563 215 0 215 0 2 870 3 870 55 -72 c68 -90 242 -266 335 -340 221 -175 487 -314 743 -388 191 -55 299 -71 523 -77 237 -6 349 3 519 42 645 149 1172 559 1468 1142 310 611 310 1315 1 1937 -308 618 -878 1048 -1549 1167 -132 24 -506 34 -625 18z m440 -409 c381 -43 714 -197 986 -458 320 -306 499 -675 548 -1124 34 -310 -30 -647 -180 -943 -244 -481 -678 -814 -1204 -925 -130 -27 -390 -37 -535 -21 -489 57 -919 317 -1208 731 -198 282 -322 665 -322 995 0 106 26 309 55 417 91 350 231 595 480 843 317 317 728 488 1185 494 58 0 146 -4 195 -9z"/>
    <path d="M2885 4360 c-339 -36 -628 -182 -851 -432 -150 -167 -256 -383 -309 -628 -22 -103 -31 -365 -16 -471 55 -384 256 -711 568 -927 42 -28 81 -52 87 -52 8 0 147 297 173 369 1 3 -16 17 -39 31 -58 35 -179 157 -228 231 -58 85 -114 208 -141 309 -32 121 -33 328 -1 453 46 185 115 311 240 440 174 178 384 267 633 267 356 0 655 -193 810 -525 64 -137 84 -234 83 -415 -1 -186 -18 -263 -94 -415 -90 -181 -227 -318 -405 -406 -142 -70 -230 -91 -389 -93 l-130 -1 -48 -180 c-26 -99 -48 -187 -48 -196 0 -20 36 -27 175 -35 250 -15 541 69 780 224 98 65 270 239 337 342 180 276 258 578 228 881 -41 432 -248 793 -580 1014 -248 166 -555 245 -835 215z"/>
    <path d="M2897 3400 c-89 -23 -187 -93 -237 -172 -138 -213 -61 -489 169 -601 62 -30 73 -32 171 -32 98 0 109 2 173 33 85 42 156 113 199 199 31 64 33 74 33 173 0 97 -2 110 -32 172 -41 87 -114 160 -199 200 -54 25 -81 31 -152 34 -48 2 -104 -1 -125 -6z"/>
  </g>
  <defs>
    <linearGradient id="bg" x1="0" y1="0" x2="32" y2="32">
      <stop offset="0%" stop-color="#3b82f6"/>
      <stop offset="100%" stop-color="#2563eb"/>
    </linearGradient>
  </defs>
</svg>
